<svg xmlns="http://www.w3.org/2000/svg" width="24" height="22" viewBox="0 0 24 22"><defs><style>.a{fill:#fff;}</style></defs><g transform="translate(-0.55 -0.5)"><path class="a" d="M7.58,2A5.484,5.484,0,0,0,3.671,3.624a5.567,5.567,0,0,0,0,7.849l8.879,8.9,8.879-8.9a5.567,5.567,0,0,0,0-7.849,5.516,5.516,0,0,0-7.817,0L12.55,4.689,11.488,3.624A5.483,5.483,0,0,0,7.58,2m0-1.5A7,7,0,0,1,12.55,2.564a7.039,7.039,0,0,1,9.941,9.968L12.55,22.5,2.609,12.532A7.048,7.048,0,0,1,7.58.5Z" transform="translate(0 0)"/></g></svg>